# xmcd
#
# Track frame offsets:
#	150
#	19967
#	44267
#
# Disc length: 888 seconds
#
# Revision: 0
# Processed by: cddbd v1.5.2PL0 Copyright (c) Steve Scherf et al.
# Submitted via: audiograbber 1.83.01
#
DISCID=1e037603
DTITLE=Moon Cakes - Damage Control [CDS)
DYEAR=1993
DGENRE=Dance
TTITLE0=Damage Control
TTITLE1=Emotional Playground
TTITLE2=Damage Co2
EXTD=TR.
EXTT0=
EXTT1=
EXTT2=
PLAYORDER=
